<?xml version="1.0" encoding="utf-8"?>
<!-- Generator: Adobe Illustrator 25.0.1, SVG Export Plug-In . SVG Version: 6.00 Build 0)  -->
<svg version="1.0" id="Layer_1" xmlns="http://www.w3.org/2000/svg" xmlns:xlink="http://www.w3.org/1999/xlink" x="0px" y="0px"
	 viewBox="0 0 550.6 383.1" style="enable-background:new 0 0 550.6 383.1;" xml:space="preserve">
<style type="text/css">
	.st0{fill:#279E92;}
	.st1{font-family:'DMSans-Regular';}
	.st2{font-size:21.31px;}
	.st3{letter-spacing:4;}
	.st4{letter-spacing:1;}
	.st5{letter-spacing:3;}
</style>
<path class="st0" d="M275.5,68c0,0-2.2,4.9-18.5,34c-10.8,19.2-9.3,35.2,3.1,52.4c13.3,18.6,14,19.7,14,19.7h-25.4
	c-36.9-0.1-41.5,31.1-41.5,31.1h48.4L274,174h65.6L275.5,68z"/>
<path d="M85.6,283.1l7.5-7.4l20.6-47.8l-2.9-6.7h11.8l26,62h-24.1l9.2-7.4l-5.6-13.2h-26l-5.3,12.6l11.4,8L85.6,283.1L85.6,283.1z
	 M103.4,259.6h23.5l-11.5-28.1L103.4,259.6z"/>
<path d="M173.5,284.1c-3.9,0.1-7.7-1-10.9-3.1c-3.1-2-5.6-4.9-7.3-8.2c-1.7-3.5-2.6-7.3-2.5-11.2c0-3.9,0.9-7.8,2.6-11.4
	c1.7-3.5,4.3-6.5,7.6-8.6c3.6-2.3,7.8-3.4,12.1-3.3c3,0,6,0.5,8.8,1.4c2.9,1,5.7,2.5,8.2,4.3l-7.1,8l-10.7-11.6
	c-2.6,0.3-5,1.4-6.9,3.1c-2,1.7-3.6,3.9-4.6,6.4c-1.1,2.5-1.6,5.2-1.6,7.9c-0.1,3.1,0.7,6.2,2.3,8.9c1.4,2.5,3.5,4.5,6.1,5.8
	c2.6,1.4,5.4,2,8.3,2c2.8,0,5.6-0.6,8.2-1.8c2.8-1.3,5.2-3.2,7.2-5.5c-0.7,2.8-1.8,5.5-3.4,8c-1.6,2.6-3.9,4.8-6.5,6.4
	C180.4,283.3,177,284.1,173.5,284.1z"/>
<path d="M217.6,284.1c-3.9,0.1-7.7-1-10.9-3.1c-3.1-2-5.6-4.9-7.3-8.2c-1.7-3.5-2.6-7.3-2.5-11.2c0-3.9,0.9-7.8,2.6-11.4
	c1.7-3.5,4.3-6.5,7.6-8.6c3.6-2.3,7.8-3.4,12.1-3.3c3,0,6,0.5,8.8,1.4c2.9,1,5.7,2.5,8.2,4.3l-7.1,8l-10.7-11.6
	c-2.6,0.3-5,1.4-6.9,3.1c-2,1.7-3.6,3.9-4.6,6.4c-1.1,2.5-1.6,5.2-1.6,7.9c-0.1,3.1,0.7,6.2,2.3,8.9c1.4,2.5,3.5,4.5,6.1,5.8
	c2.6,1.4,5.4,2,8.3,2c2.8,0,5.6-0.6,8.2-1.8c2.8-1.3,5.2-3.2,7.2-5.5c-0.7,2.8-1.8,5.5-3.4,8c-1.6,2.6-3.9,4.8-6.5,6.4
	C224.5,283.3,221.1,284.1,217.6,284.1z"/>
<path d="M263.1,284.1c-4.1,0.1-8.2-0.9-11.8-3c-3.3-2-5.9-4.8-7.6-8.2c-1.8-3.6-2.8-7.6-2.7-11.7c-0.1-4.1,0.9-8.2,2.9-11.9
	c1.8-3.4,4.6-6.3,8-8.2c3.6-2,7.7-3,11.8-2.9c4.1-0.1,8.2,0.9,11.7,3c3.3,1.9,6,4.8,7.7,8.2c1.8,3.6,2.8,7.6,2.7,11.7
	c0.1,4.1-0.9,8.2-2.9,11.9c-1.8,3.4-4.6,6.2-8,8.2C271.3,283.1,267.3,284.1,263.1,284.1z M264.4,281.5c3.2,0.1,6.2-1.8,7.5-4.7
	c1.6-3.2,2.5-7.4,2.5-12.9c0-3.8-0.4-7.6-1.4-11.2c-0.7-3.1-2.1-6-4.1-8.4c-1.7-2.1-4.2-3.2-6.9-3.2c-3.2-0.1-6.2,1.8-7.5,4.7
	c-1.6,3.2-2.4,7.4-2.4,12.9c0,3.8,0.4,7.6,1.4,11.2c0.7,3.1,2.1,6,4.1,8.4C259.3,280.4,261.8,281.6,264.4,281.5L264.4,281.5z"/>
<path d="M290.9,283.1l7.8-6.2v-48l-8.8-4.9l18.9-5.9V277l7.8,6.2L290.9,283.1L290.9,283.1z"/>
<path d="M348,275c-1.8,2.7-4.2,5-6.9,6.7c-2.4,1.5-5.2,2.3-8,2.4c-3.2,0.1-6.3-1.1-8.6-3.3c-2.5-2.2-3.8-5.5-3.7-8.8
	c-0.1-2.9,0.9-5.7,2.9-7.7c2.4-2.3,5.4-3.9,8.6-4.8c5-1.5,10.1-2.6,15.3-3.3v-4.4c0-3.5-0.8-6.2-2.4-8.2c-1.4-1.8-3.5-3-5.9-3.2
	l-10.8,13l-7.5-8.2c2.2-1.5,4.4-2.8,6.2-3.8c2-1,4-1.8,6.2-2.3c2.3-0.6,4.6-0.9,6.9-0.9c5.1,0,9.3,1.3,12.5,3.8s4.9,6,4.9,10.6v21.2
	l8.8,4.9l-18.4,5.8L348,275L348,275z M338.4,277.1c3.3,0,6.4-1.6,9.2-4.7v-14c-5.7,1.1-9.7,2.6-12.2,4.6c-2.4,1.7-3.8,4.4-3.7,7.4
	c0,2.3,0.6,4,1.9,5.1C335,276.5,336.7,277.1,338.4,277.1L338.4,277.1z"/>
<path d="M400.8,275.3c-1.5,2.6-3.5,4.8-6,6.5c-2.3,1.5-5.1,2.3-7.9,2.3c-3.6,0.1-7.1-1-9.9-3.1c-2.7-2.1-4.9-4.8-6.2-8
	c-1.4-3.4-2.1-7-2.1-10.7c0-4,0.8-7.9,2.4-11.6c1.5-3.6,3.9-6.7,6.9-8.9c3.2-2.3,7.2-3.5,11.2-3.4c4.1-0.1,8.2,1.5,11.1,4.4V229
	l-8.7-4.9l18.8-5.9V274l8.9,4.9l-18.4,5.8V275.3z M391.9,275.7c1.5,0,3.1-0.3,4.5-0.8c1.5-0.5,2.8-1.4,3.8-2.6v-13.7
	c0-5.8-0.8-10.2-2.4-13.2c-1.4-2.9-4.4-4.6-7.6-4.5c-2.2,0-4.4,0.8-6,2.3c-1.8,1.7-3.1,3.8-3.9,6.2c-0.9,2.6-1.3,5.3-1.3,8.1
	c0,3,0.5,6,1.4,8.8c0.9,2.6,2.4,4.9,4.4,6.7C386.8,274.8,389.3,275.7,391.9,275.7z"/>
<path d="M442.1,284.1c-3.9,0.1-7.7-1-11-3.1c-3.1-2.1-5.6-4.9-7.3-8.3c-1.7-3.5-2.6-7.4-2.5-11.4c0-3.9,0.8-7.7,2.5-11.2
	c3.4-7.3,10.8-11.9,18.8-11.7c3.2-0.1,6.3,0.7,9.2,2.2c2.6,1.5,4.8,3.7,6.2,6.4c1.6,3.3,2.4,7,2.5,10.7h-34.2v-2.9h23.6
	c0.4-2.2,0.3-4.5-0.3-6.7c-0.5-1.9-1.4-3.7-2.9-5.1c-1.3-1.3-3.2-2.1-5.1-2c-2.2,0-4.4,0.8-6.2,2.2c-1.9,1.6-3.4,3.6-4.3,5.9
	c-2.2,5.6-2.1,11.7,0.2,17.2c1.1,2.6,3,4.8,5.4,6.4c2.7,1.6,5.8,2.4,8.9,2.3c6,0,11.7-2.8,15.4-7.7c-1,4.4-3.1,8.5-6.2,11.9
	C451.8,282.5,447.5,284.1,442.1,284.1z"/>
<text transform="matrix(1 0 0 1 84 309.53)" class="st1 st2 st3">PERSONALIZED HEA</text>
<text transform="matrix(1 0 0 1 347.72 309.53)" class="st1 st2 st4">L</text>
<text transform="matrix(1 0 0 1 360.81 309.53)" class="st1 st2 st3">TH</text>
<text transform="matrix(1 0 0 1 395.74 309.53)" class="st1 st2 st5">C</text>
<text transform="matrix(1 0 0 1 414.98 309.53)" class="st1 st2 st3">ARE</text>
</svg>
